<svg id="noun_Save_648269_000000" xmlns="http://www.w3.org/2000/svg" viewBox="0 0 22.443 22.443">
  <defs>
    <style>
      .cls-1 {
        fill: #707070;
      }
    </style>
  </defs>
  <g id="Group_217" data-name="Group 217" transform="translate(0 0)">
    <path id="Path_196" data-name="Path 196" class="cls-1" d="M59.275,18.2H49.4v7.182h9.875Zm-2.693,4.938a.449.449,0,1,1-.9,0v-1.8a.449.449,0,1,1,.9,0Z" transform="translate(-44.014 -18.2)"/>
    <rect id="Rectangle_183" data-name="Rectangle 183" class="cls-1" width="11.671" height="8.977" transform="translate(5.386 13.466)"/>
    <path id="Path_197" data-name="Path 197" class="cls-1" d="M40.512,21.922l-3.591-3.591A.447.447,0,0,0,36.6,18.2H34.359v7.631a.449.449,0,0,1-.449.449H23.138a.449.449,0,0,1-.449-.449V18.2h-4.04a.449.449,0,0,0-.449.449V40.194a.449.449,0,0,0,.449.449h4.04V31.217a.449.449,0,0,1,.449-.449H35.706a.448.448,0,0,1,.449.449v9.426h4.04a.448.448,0,0,0,.449-.449V22.24A.448.448,0,0,0,40.512,21.922Z" transform="translate(-18.2 -18.2)"/>
  </g>
</svg>
