<svg xmlns="http://www.w3.org/2000/svg" viewBox="0 0 19.125 31.005">
  <defs>
    <style>
      .cls-1 {
        fill: #707070;
      }
    </style>
  </defs>
  <g id="Group_244" data-name="Group 244" transform="translate(-407.312 -818.995)">
    <path id="Path_141" data-name="Path 141" class="cls-1" d="M34.538,74.2c-.653.849-1.24,1.6-1.762,2.219a3.286,3.286,0,0,1-2.546,1.208,3.169,3.169,0,0,1-2.513-1.208c-.522-.62-1.11-1.371-1.762-2.219-3.133.653-5.254,2.023-5.254,3.59,0,2.219,4.275,4.014,9.53,4.014s9.563-1.8,9.563-4.014C39.792,76.223,37.671,74.853,34.538,74.2Z" transform="translate(386.611 768.196)"/>
    <path id="Path_142" data-name="Path 142" class="cls-1" d="M31.472,26.977c2.513-3.1,8.42-10.8,8.42-14.948a9.546,9.546,0,0,0-19.092,0c0,4.145,5.875,11.847,8.42,14.948A1.446,1.446,0,0,0,31.472,26.977ZM25.663,12.03A4.667,4.667,0,1,1,30.33,16.7,4.666,4.666,0,0,1,25.663,12.03Z" transform="translate(386.544 816.495)"/>
  </g>
</svg>
