<svg xmlns="http://www.w3.org/2000/svg" viewBox="0 0 13.239 30.659">
  <defs>
    <style>
      .cls-1 {
        fill: #707070;
        fill-rule: evenodd;
      }
    </style>
  </defs>
  <path id="Path_143" data-name="Path 143" class="cls-1" d="M35.17,958.362v1.2H31.142v2.515H35.17v1.2h1.187v2.711H35.9a2.45,2.45,0,0,0-1.579.588,1.727,1.727,0,0,0-.7,1.274v.751A3.679,3.679,0,0,0,31,972.113V987.28a1.749,1.749,0,0,0,1.742,1.742H42.5a1.749,1.749,0,0,0,1.742-1.742V972.113A3.677,3.677,0,0,0,41.6,968.6v-.751a1.711,1.711,0,0,0-.7-1.274,2.46,2.46,0,0,0-1.579-.588h-.446v-2.711h1.176v-4.91H35.17Zm.773.795h3.332v3.321H35.943Zm-4.018,1.2H35.17v.926H31.925Zm5.215,2.918H38.1v2.711h-.958ZM35.9,966.767h3.43a1.709,1.709,0,0,1,1.078.414,1.1,1.1,0,0,1,.414.664v.621c-2.107,0-4.225,0-6.413,0v-.621a1.1,1.1,0,0,1,.414-.664,1.7,1.7,0,0,1,1.078-.414Z" transform="translate(-31 -958.362)"/>
</svg>
