<svg xmlns="http://www.w3.org/2000/svg" viewBox="0 0 26.955 28.588">
  <defs>
    <style>
      .cls-1 {
        fill: #707070;
      }
    </style>
  </defs>
  <g id="noun_Share_83605_000000" transform="translate(0 0)">
    <g id="Group_212" data-name="Group 212" transform="translate(17.97 0)">
      <g id="Group_211" data-name="Group 211">
        <ellipse id="Ellipse_22" data-name="Ellipse 22" class="cls-1" cx="4.492" cy="4.492" rx="4.492" ry="4.492"/>
      </g>
    </g>
    <g id="Group_214" data-name="Group 214" transform="translate(17.97 19.603)">
      <g id="Group_213" data-name="Group 213">
        <ellipse id="Ellipse_23" data-name="Ellipse 23" class="cls-1" cx="4.492" cy="4.492" rx="4.492" ry="4.492"/>
      </g>
    </g>
    <g id="Group_215" data-name="Group 215" transform="translate(0 9.802)">
      <ellipse id="Ellipse_24" data-name="Ellipse 24" class="cls-1" cx="4.492" cy="4.492" rx="4.492" ry="4.492"/>
    </g>
    <g id="Group_216" data-name="Group 216" transform="translate(3.267 3.267)">
      <path id="Path_195" data-name="Path 195" class="cls-1" d="M37.051,37.34a1.218,1.218,0,0,1-.585-.15l-17.97-9.8a1.225,1.225,0,0,1,0-2.151l17.97-9.8a1.225,1.225,0,0,1,1.173,2.151l-16,8.726,16,8.726a1.226,1.226,0,0,1-.588,2.3Z" transform="translate(-17.857 -15.285)"/>
    </g>
  </g>
</svg>
