<svg xmlns="http://www.w3.org/2000/svg" viewBox="0 0 59 59">
  <defs>
    <style>
      .cls-1 {
        fill: #000;
      }
    </style>
  </defs>
  <g id="noun_Close_1292415_000000" transform="translate(-8 -8)">
    <path id="Path_198" data-name="Path 198" class="cls-1" d="M55.791,27.525,42.625,40.69,29.458,27.525,27.524,29.46,40.69,42.625,27.524,55.791l1.934,1.935L42.625,44.561,55.791,57.726l1.936-1.935L44.561,42.625,57.727,29.46Z" transform="translate(-5.125 -5.125)"/>
    <path id="Path_199" data-name="Path 199" class="cls-1" d="M37.5,8A29.5,29.5,0,1,0,67,37.5,29.533,29.533,0,0,0,37.5,8Zm0,56.893A27.393,27.393,0,1,1,64.893,37.5,27.424,27.424,0,0,1,37.5,64.893Z" transform="translate(0 0)"/>
  </g>
</svg>
