<svg xmlns="http://www.w3.org/2000/svg" viewBox="0 0 210.095 92.574">
  <defs>
    <style>
      .cls-1 {
        fill: #fff;
      }
    </style>
  </defs>
  <g id="Group_113" data-name="Group 113" transform="translate(0 0.169)">
    <g id="Group_1" data-name="Group 1" transform="translate(0 0.563)">
      <path id="Path_1" data-name="Path 1" class="cls-1" d="M12.432,2c1.693,0,3.483.048,5.224,0,2.612-.1,5.128-.484,7.74-.532,1.354,0,2.661-.193,4.015-.1,1.209,0,2.322.1,3.531.1,2.9.048,5.853.048,8.756.242,1.113.048,2.225-.1,3.386,0,1.4.145,2.806.29,4.305.387a.83.83,0,0,1,.677.58,1.7,1.7,0,0,1-.435,1.4A4.464,4.464,0,0,1,46,6.354c-3.531-.145-6.869-1.306-10.4-1.548a6.4,6.4,0,0,0-2.564.145c-1.451.822-1.258,3-1.161,4.5.1.967,1.5.677,2.322.726a44.226,44.226,0,0,0,7.159.048,116.756,116.756,0,0,1,12.336.387,25.7,25.7,0,0,1,5.757.726,2.592,2.592,0,0,1,1.741,1.79,8.383,8.383,0,0,1-.145,1.548c-.29,2.612-.048,5.224-.339,7.837q-.218,1.669-.58,3.338a1.486,1.486,0,0,1-.967.967c-.822.145-1.935.242-2.225-.677-.822-2.274-.629-4.789-.871-7.159-.145-1.4-.1-3.144-1.451-4.015a11.255,11.255,0,0,0-3.048-1.258,53.027,53.027,0,0,0-5.9-.58c-4.16,0-8.369-.048-12.626.29a2.463,2.463,0,0,0-1.064.242c-.435.242-.242.822-.242,1.258-.29,3.144.1,6.192-.1,9.336-.048,1.209-.339,3.338-.339,4.741a2.133,2.133,0,0,1-.774,1.838,2.05,2.05,0,0,1-2.612-.967,5.91,5.91,0,0,1-.339-2.612,103.087,103.087,0,0,1,.29-11.562,2.394,2.394,0,0,0-.242-1.645c-.484-.677-2.128-.677-3.144-.677-4.16.1-8.949.629-12.577.871a16.611,16.611,0,0,0-4.112.677,3.991,3.991,0,0,0-2.225,2.032c-.58,1.5-.242,3.144-.339,4.692-.145,1.451.29,2.806,0,4.305a4.436,4.436,0,0,1-.677,1.887c-.677.58-1.693,1.209-2.515.822C.822,28.122.339,26.623,0,25.462A108.235,108.235,0,0,1,1.838,11.723a2.453,2.453,0,0,1,1.887-1.79c.532-.048.919.435,1.354.629a16.665,16.665,0,0,0,2.757.145c2.128-.1,5.079.145,7.692-.048,1.113-.1,8.9-.629,11.707-.629a.415.415,0,0,0,.339-.29A6.935,6.935,0,0,0,27.187,4.9c-.1-.29-.387-.242-.677-.242-2.274.193-4.354.29-6.579.629a33.134,33.134,0,0,0-5.37,1.161,2.258,2.258,0,0,0-1.113.58,2.6,2.6,0,0,1-2.225.29,2.938,2.938,0,0,1-1.79-1.838,3.418,3.418,0,0,1-.1-1.693C9.723,2.532,11.175,2,12.432,2Z" transform="translate(0 -1.344)"/>
      <path id="Path_2" data-name="Path 2" class="cls-1" d="M31.938,34.063a19.19,19.19,0,0,1,2.322.339c.58.1.58.726.58,1.258a1.08,1.08,0,0,1-.145.677.891.891,0,0,1-.677.435c-2.177.29-4.354.1-6.531.193a11.526,11.526,0,0,0-1.258.242c-.967.29-1.693.967-2.757,1.113a1.627,1.627,0,0,1-1.645-.871,3.006,3.006,0,0,1,0-2.419A.978.978,0,0,1,22.5,34.6C25.649,34.547,28.794,33.869,31.938,34.063Z" transform="translate(-11.137 -18.217)"/>
      <path id="Path_3" data-name="Path 3" class="cls-1" d="M32.919,47.8c.435,0,1.016,0,1.209.435a3.16,3.16,0,0,1,0,1.645c-.29,1.064-1.016,1.209-1.983,1.354a29.309,29.309,0,0,1-4.063.1,9.888,9.888,0,0,0-2.806.532c-.726.242-1.064.677-1.741.871a1.948,1.948,0,0,1-2.177-1.016,2.46,2.46,0,0,1,.967-3.144,4.845,4.845,0,0,1,1.887-.339C27.114,47.993,30.017,47.945,32.919,47.8Z" transform="translate(-10.909 -25.327)"/>
      <path id="Path_4" data-name="Path 4" class="cls-1" d="M75.845,34.084c3.048-.048,6.144-.339,9.191-.29.919,0,1.451,0,2.322.048,1.451,0,.968,2.128-.1,2.757a4.159,4.159,0,0,1-1.887.435c-2.37.194-4.692-.145-6.918.242a17.94,17.94,0,0,1-1.935.822c-.58.1-1.4,0-1.645-.532A3.643,3.643,0,0,1,74.49,35.1,1.6,1.6,0,0,1,75.845,34.084Z" transform="translate(-38.403 -18.094)"/>
      <path id="Path_5" data-name="Path 5" class="cls-1" d="M75.314,48.028h.726c3.29.048,6.627-1.161,9.917-.1.581.194,1.258,0,1.935.145a.787.787,0,0,1,.435,1.016,2.357,2.357,0,0,1-2.08,1.887c-2.9.29-5.757-.726-8.611.1-.581.242-1.016.774-1.645.919a1.982,1.982,0,0,1-2.128-1.209C73.475,49.721,73.959,48.028,75.314,48.028Z" transform="translate(-38.065 -25.168)"/>
      <path id="Path_6" data-name="Path 6" class="cls-1" d="M42.605,64.347c1.209-.048,2.322-.1,3.531-.1a41.777,41.777,0,0,1,9.481.532,10.557,10.557,0,0,1,3.144,1.306,2.308,2.308,0,0,1,1.161,2.419A27.437,27.437,0,0,0,58.472,74.7a46.351,46.351,0,0,1-.919,7.692,6.07,6.07,0,0,1-2.177,4.015,2.412,2.412,0,0,1-2.37.1,12.136,12.136,0,0,0-3.241-.726,43.464,43.464,0,0,0-6.627-.339c-1.548.048-3.144,0-4.692.1-4.547.387-8.949.435-13.593,1.113-2.37.339-4.547.919-6.966,1.306a2.973,2.973,0,0,1-1.306,0,1.5,1.5,0,0,1-1.064-.871c-.242-.919-1.016-1.741-.629-2.709a2.4,2.4,0,0,1,1.4-.968A6.33,6.33,0,0,1,19,83.165c2.515-.1,4.983-.339,7.546-.29,3.725.145,7.45-.629,11.175-.774a70.984,70.984,0,0,1,11.562.145,4.867,4.867,0,0,0,3.289-.387,2.582,2.582,0,0,0,.967-2.177c.048-1.016.58-2.467-.484-3.144-3.1-.29-6.1-.194-9.143-.339-3.87-.145-7.837.145-11.707.387a42.445,42.445,0,0,0-4.257.484,20.221,20.221,0,0,0-2.419.1,19.368,19.368,0,0,0-3,.629A12.338,12.338,0,0,1,20.3,79a3.433,3.433,0,0,1-3.725-.484c-.726-.774-1.4-1.887-.919-2.9a2.258,2.258,0,0,1,1.79-1.258A65.23,65.23,0,0,1,25,73.731h3.144c1.354,0,2.661-.387,4.015-.484a129.46,129.46,0,0,1,12.964-.435c2.177,0,4.4.048,6.579.193.726,0,1.4.339,2.177.339.242,0,.29-.29.339-.532A5.511,5.511,0,0,0,54.07,70.3a3.051,3.051,0,0,0-2.177-2.08c-3-.484-5.757-.726-8.659-1.016-3.241-.29-6.337.339-9.481.532-1.064.048-1.935.387-3,.532a12.754,12.754,0,0,0-1.838.145,33.683,33.683,0,0,0-7.3,1.838c-.677.242-1.161.871-1.935.871a5.033,5.033,0,0,1-3-.435,1.311,1.311,0,0,1-.532-1.209A5.777,5.777,0,0,1,16,67.249a1.512,1.512,0,0,1,1.161-1.113,25.289,25.289,0,0,1,3.822-.194c1.354-.145,2.612-.387,3.967-.532,3.87-.484,7.595-.726,11.416-.967C38.493,64.2,40.477,64.4,42.605,64.347Z" transform="translate(-7.63 -33.795)"/>
    </g>
    <g id="Group_2" data-name="Group 2" transform="translate(66.913 4.489)">
      <path id="Path_7" data-name="Path 7" class="cls-1" d="M161.773,13.543a40.273,40.273,0,0,1,.339,7.982.576.576,0,0,1-.194.484c-.29.242-.629.145-.919.145-2.757.145-5.515.629-8.369.339-.242-.048-.242-.387-.29-.532-.048-.871.29-1.693.29-2.564.1-1.161-.1-2.322-.048-3.483a4.41,4.41,0,0,1,.581-2.128,2.131,2.131,0,0,1,1.693-.822c1.4-.339,2.806-.242,4.16-.484a2.949,2.949,0,0,1,1.306.145C160.951,12.769,161.725,12.866,161.773,13.543Zm.242,12.094a18.038,18.038,0,0,1-.145,6.24c0,.145-.145.29-.387.29-1.838.242-3.628.387-5.466.629a10.071,10.071,0,0,1-2.951.1.429.429,0,0,1-.193-.484,25.923,25.923,0,0,1-.194-3.87,1.97,1.97,0,0,1,.242-1.258c.484-.629,1.064-1.451,1.887-1.645a26.3,26.3,0,0,1,6.385-.629C161.58,25.008,162.015,25.25,162.015,25.637Zm3.773.145a16.161,16.161,0,0,1-.242-2.08c.29-2.128.193-4.209.387-6.385a19.869,19.869,0,0,1,.919-2.709,3.516,3.516,0,0,0-1.161-3.725,4.126,4.126,0,0,0-2.516-.822c-1.209-.242-2.37.145-3.628-.048a44.849,44.849,0,0,0-9.143-.532,2.125,2.125,0,0,0-1.79,1.4c-.726,2.128-.339,4.209-.242,6.337.193,2.322.919,4.547,1.016,6.918.1,1.983,0,4.015.1,6.047a23,23,0,0,1,.194,5.466,24.466,24.466,0,0,1-6,13.932c-1.838,1.983-4.015,3.676-5.079,6.1a2.648,2.648,0,0,0,.532,3.144c1.355.919,3,.387,4.209-.532.339-.339.629-.629.967-1.016a23.505,23.505,0,0,0,1.983-1.838c.629-.822,1.258-1.645,1.838-2.564a59.149,59.149,0,0,0,3.241-7.159c.822-2.322.871-4.6,1.451-7.014.1-.145.242-.387.387-.435,1.693-1.016,3.193-2.177,5.128-2.515,1.161-.145,2.709-.871,3.435.29,0,6.144-.29,12.239-.193,18.382a11.845,11.845,0,0,0,.532,4.305,2.017,2.017,0,0,0,2.274,1.354,2.775,2.775,0,0,0,1.935-2.564,2.829,2.829,0,0,0,.726-2.274c-.048-1.4-.484-2.709-.581-4.063a45.35,45.35,0,0,1-.581-5.079c-.1-2.37-.29-4.692-.193-7.063,0-.532,0-1.016-.048-1.548a11.666,11.666,0,0,1,.048-1.838c.145-2.225-.145-4.4.1-6.579C165.788,27.959,165.837,26.846,165.788,25.782Z" transform="translate(-138.322 -9.46)"/>
      <path id="Path_8" data-name="Path 8" class="cls-1" d="M212.661,13.966a27.72,27.72,0,0,1,6.918.629,2.473,2.473,0,0,0,1.451,0,6.748,6.748,0,0,1,3.918.048c.967.532,1.113,1.693,1.4,2.661.29,1.016-.435,1.79-.677,2.709a80.441,80.441,0,0,0-2.564,23.123,15.22,15.22,0,0,0,1.161,5.853,4.243,4.243,0,0,0,1.645,1.693,20.833,20.833,0,0,0,9,3.1c1.838.1,3.483-.484,5.321-.774.29-.1.435.387.387.677a6.688,6.688,0,0,1-.967,2.419c-1.742,1.935-3.87,3.87-6.531,3.822a13.683,13.683,0,0,1-5.176-1.354,11.5,11.5,0,0,1-2.9-1.645,12.527,12.527,0,0,1-3.483-4.16,19.752,19.752,0,0,1-1.354-4.354,13.144,13.144,0,0,1-.29-3.628,91.3,91.3,0,0,1,.145-9.627c.242-2.9.193-5.757.435-8.707a26.756,26.756,0,0,0,.1-5.9,14.441,14.441,0,0,0-.484-2.515c-.194-.387-.484-.871-.968-.919a17.682,17.682,0,0,0-5.321.1c-.677.145-1.645.58-1.79,1.354a4.889,4.889,0,0,0-.1,1.451c.145,1.064-.435,1.887-.484,2.9-.1,4.305.387,8.611.435,12.916a33.162,33.162,0,0,1-1.693,12.287,16.58,16.58,0,0,1-1.451,3.676,24.447,24.447,0,0,1-3.87,5.031,4.742,4.742,0,0,1-4.644,1.258,1.851,1.851,0,0,1-.871-2.612c.484-1.113,1.6-1.693,2.37-2.661.484-.629.871-1.209,1.451-1.935,1.016-1.5,1.838-2.854,2.709-4.305a15.522,15.522,0,0,0,1.548-6c.484-4.4.387-8.707.629-13.013a26.358,26.358,0,0,0-.387-4.305c-.387-2.661-.919-5.515-.726-7.5.1-.726.677-1.209,1.451-1.983a2.658,2.658,0,0,1,2.516-.58c.387.048.774.435,1.161.677C212.177,13.966,212.419,13.966,212.661,13.966Z" transform="translate(-169.715 -11.335)"/>
    </g>
    <g id="Group_3" data-name="Group 3" transform="translate(142.211 -0.169)">
      <path id="Path_9" data-name="Path 9" class="cls-1" d="M310.6,23.282c.242.774.1,1.741.339,2.515s.387,2.032-.435,2.274c-.677.194-1.209-.387-1.742-.774A34.7,34.7,0,0,1,305.42,24.1c-.629-.726-1.064-2.128.048-2.757a4.947,4.947,0,0,1,3.386-.726C310.065,20.864,310.306,22.218,310.6,23.282Z" transform="translate(-299.556 -10.526)"/>
      <path id="Path_10" data-name="Path 10" class="cls-1" d="M337,20.919c.29-.629.193-1.451.677-1.838a1.625,1.625,0,0,1,2.37.629A4.124,4.124,0,0,1,340.34,23a5.382,5.382,0,0,1-1.258,1.887,17.576,17.576,0,0,1-3.967,2.37c-.484.1-1.016-.145-1.016-.629,0-1.4,1.016-2.419,1.693-3.676C336.132,22.225,336.615,21.6,337,20.919Z" transform="translate(-314.691 -9.614)"/>
      <path id="Path_11" data-name="Path 11" class="cls-1" d="M312.467,7.653c-.677,3.193-.339,6.289-.629,9.433a10.112,10.112,0,0,0,0,2.419c.1.1.1.242.242.29a15.9,15.9,0,0,0,3.048-.145,10.38,10.38,0,0,1,3.435.339c.919.242,2.177.967,1.693,2.225a1.741,1.741,0,0,1-.581.387c-2.564.484-4.983.242-7.45.58-.145.048-.29.339-.387.484a11.04,11.04,0,0,0-.242,2.128c-.048,1.258-.339,2.515.193,3.725,3.676-1.354,6.337,2.322,8.756,4.6a2.508,2.508,0,0,1,.048,3.338,2.689,2.689,0,0,1-3.386.58c-2.274-1.354-2.9-4.015-4.4-6.144a6.015,6.015,0,0,0-.919-1.016c-.1,0-.242,0-.242.1-.145,4.257-.048,8.514.193,12.771.1,1.645.242,3.386.339,5.031a17.675,17.675,0,0,1-.532,4.983,3.418,3.418,0,0,1-1.209,2.225,4.8,4.8,0,0,1-1.451.242.969.969,0,0,1-.919-.387,4.84,4.84,0,0,1-.677-1.983,16.266,16.266,0,0,1,0-2.661c-.048-5.418.1-10.739.532-16.206,0-.387.145-.919-.145-1.113-.339-.145-.532.29-.774.532a33.09,33.09,0,0,1-4.4,5.224,10.676,10.676,0,0,1-1.935,1.741,23.032,23.032,0,0,0-2.274,1.5,4.106,4.106,0,0,1-3.241.677,2.116,2.116,0,0,1-.871-3,5.588,5.588,0,0,1,1.79-1.741c1.79-1.451,3.386-2.612,5.176-3.967a28.1,28.1,0,0,0,4.354-3.58,11.273,11.273,0,0,0,2.177-4.209A7.2,7.2,0,0,0,307.823,24c0-.194-.048-.339-.145-.339a19.93,19.93,0,0,0-4.451.677,24.428,24.428,0,0,0-3,1.016,6.518,6.518,0,0,1-2.9.1c-.822-.145-1.693-.387-1.983-1.258a2.546,2.546,0,0,1,1.113-2.225c1.451-.919,1.4-1.258,2.515-1.693a4.247,4.247,0,0,1,1.548.048c2.032.339,3.967-.387,6-.242,1.016.1,1.355.242,1.6-.435a6.489,6.489,0,0,0,.048-2.37c.048-1.741.339-3.483.29-5.224-.1-2.032-.1-4.015-.242-6.047A13.088,13.088,0,0,1,308.356.88a1.239,1.239,0,0,1,1.064-.967,2.478,2.478,0,0,1,3.1,1.935c.1.726-.048,1.4.1,2.128a8.858,8.858,0,0,1,.1,1.6A15.259,15.259,0,0,1,312.467,7.653Z" transform="translate(-293.977 0.169)"/>
      <path id="Path_12" data-name="Path 12" class="cls-1" d="M356.733,8.05a2.544,2.544,0,0,0,.823-.193,12.418,12.418,0,0,0,2.322.048,16.756,16.756,0,0,0,3.483,0c.145-.1.29-.242.29-.387a22.352,22.352,0,0,1,.339-4.741c.242-.726.919-.871,1.5-1.016a1.785,1.785,0,0,1,1.983.919,6.719,6.719,0,0,1,.29,3.1,7.022,7.022,0,0,0,.1,1.741.642.642,0,0,0,.484.387c2.128.387,4.209.048,6.337.29a17.372,17.372,0,0,1,3.918.435,1.671,1.671,0,0,1,1.064.774c.387.774-.387,1.354-.968,1.6a5.446,5.446,0,0,1-2.322.145c-2.709.048-5.321-.193-8.079-.048a.408.408,0,0,0-.339.339,4.915,4.915,0,0,0,0,2.37c0,.387.532.532.919.532,1.113-.242,2.177.145,3.338,0a13.922,13.922,0,0,1,3.483-.193,3.475,3.475,0,0,1,1.838.242c.387.242.822.484.919,1.016a1.492,1.492,0,0,1-1.355,1.741c-.822,0-1.6-.242-2.322-.29a17.706,17.706,0,0,0-6.144.58c-1.064.387-.435,1.983-.58,3,.532.726,1.645.532,2.515.726,1.4.194,3.435-.1,4.838.194a25.076,25.076,0,0,0,3.87.58,25.538,25.538,0,0,1,3,.387c.774.193,1.4.435,2.177.629a18.667,18.667,0,0,1,3.58.967.68.68,0,0,1,.29.339,3.19,3.19,0,0,1-1.016,3.289c-1.354,1.064-3,1.741-4.547.822-2.37-1.4-4.644-2.515-7.111-3.676a15.02,15.02,0,0,0-1.742-.484c-2.129-.484-4.209-.484-6.289-.871-.725-.145-1.016.339-2.177.484-.532.1-.871-.339-1.306-.339-2.322-.145-6.434,1.016-8.562,1.887a17.767,17.767,0,0,0-3.144,1.645c-1.258.871-2.177,1.983-3.435,2.515-1.064.58-2.128-.145-2.854-1.016-.774-1.016-1.113-2.661,0-3.386a6.928,6.928,0,0,1,1.887-.774,5.179,5.179,0,0,1,1.306-.435c.774-.145,2.08-.822,2.709-.967,1.79-.435,2.951-.484,4.4-.774a59,59,0,0,1,7.3-1.064c.145-.1.387-.242.435-.387.387-.871,0-1.741,0-2.612a.528.528,0,0,0-.387-.484,29.975,29.975,0,0,0-6.869.58c-1.306.194-3,.339-3.87-.967a.874.874,0,0,1,.048-1.016,5,5,0,0,1,1.887-1.113,16.434,16.434,0,0,1,3.386-.532c1.838-.242,3.628.1,5.466-.1a.435.435,0,0,0,.29-.242,4.456,4.456,0,0,0-.242-3.289,13.98,13.98,0,0,0-3.483,0,39.774,39.774,0,0,1-4.063.726,5.252,5.252,0,0,1-2.129,0c-.58-.145-1.209-.145-1.886-.29a.568.568,0,0,1-.532-.484,1.154,1.154,0,0,1,.29-1.161C353.153,8.292,354.992,7.953,356.733,8.05Z" transform="translate(-320.538 -0.809)"/>
      <path id="Path_13" data-name="Path 13" class="cls-1" d="M375.281,59.576c.822.774,2.419,2.177,1.306,3.386a77.736,77.736,0,0,1-8.224.1,18.652,18.652,0,0,1-3.773.048c-.435-.145-.435-.629-.387-1.016a4.794,4.794,0,0,1,1.79-2.37,4.912,4.912,0,0,1,2.322-.629A20.559,20.559,0,0,1,375.281,59.576Zm-1.451,6.482c.677.048,1.451.048,2.177.145,1.258.242,1.161,1.79.919,2.9-.1.193-.242.242-.387.339a18.226,18.226,0,0,1-3.967.242c-1.451,0-2.854-.145-4.305-.048-1.209.1-2.322.145-3.531.339-.629-.629-.29-1.838-.1-2.612,0-.242.29-.484.532-.629a10.966,10.966,0,0,1,3-.58c.968-.1,2.419-.242,3.338-.242C372.33,65.913,373.008,66.01,373.83,66.058Zm-1.064-9.578c-2.419.1-4.838.29-7.208.29a18.055,18.055,0,0,0-3.048-.484,1.949,1.949,0,0,0-1.548,1.064,2.5,2.5,0,0,0-.387,1.5c.387,4.886,2.032,10.062-.822,14.561a16.4,16.4,0,0,1-3.967,4.6,13.743,13.743,0,0,0-3.1,4.209,2.008,2.008,0,0,0,0,2.08,2.192,2.192,0,0,0,1.935,1.016,3.537,3.537,0,0,0,2.322-1.209,24.479,24.479,0,0,0,5.079-6.434l1.258-2.515c.242-.581.145-1.258.629-1.742a1.189,1.189,0,0,1,.726-.242,30.164,30.164,0,0,1,6.627-.339c1.451.1,2.9-.1,4.305-.1.387,0,1.258.048,1.306.484.048,2.806-.048,5.418.1,8.272.1,1.6.484,3.338,1.838,4.16a1.6,1.6,0,0,0,2.032-.387,10.2,10.2,0,0,0,.677-2.37,5.6,5.6,0,0,0,.048-2.37c-.242-1.741-.629-3.241-.919-4.983-.145-1.161-.242-2.274-.339-3.386-.145-2.128-.145-4.209-.194-6.337a12.886,12.886,0,0,1,1.113-3.822,4.192,4.192,0,0,0,.048-2.322c-.145-.387-.145-.822-.29-1.258a2.851,2.851,0,0,0-2.419-1.693C376.684,56.722,374.749,56.48,372.766,56.48Z" transform="translate(-324.138 -28.97)"/>
    </g>
    <g id="Group_4" data-name="Group 4" transform="translate(40.925 70.83)">
      <path id="Path_14" data-name="Path 14" class="cls-1" d="M85.084,152.4c0,3.822,2.757,4.983,5.224,6,2.177.871,4.063,1.645,4.063,4.015a3.823,3.823,0,0,1-3.967,4.015,4.725,4.725,0,0,1-4.4-2.951l-.048-.145h-.726l-.629,2.951.1.145a7.611,7.611,0,0,0,5.031,1.742c4.4,0,7.45-2.806,7.45-6.869,0-3.58-2.709-4.644-5.079-5.563-2.225-.919-4.209-1.693-4.209-4.16a3.317,3.317,0,0,1,3.531-3.386c1.548,0,2.612.871,3.289,2.612l.048.145h.726l.871-2.757-.1-.145a6.757,6.757,0,0,0-4.547-1.451C87.744,146.6,85.084,148.922,85.084,152.4Z" transform="translate(-84.6 -146.6)"/>
      <path id="Path_15" data-name="Path 15" class="cls-1" d="M123.748,147.694l.242,7.595v5.079l-.242,7.933,5.611-.145,5.563.145-.1-1.113.1-1.209-.339.048a48.647,48.647,0,0,1-7.643.387c0-.435-.048-4.16-.048-4.16s0-3.58.048-4.015c.484,0,7.159.242,7.159.242v-.29l-.1-.822.1-1.161h-.29s-6.385.29-6.869.29c0-.339-.048-3.628-.048-3.628l.048-2.322s.048-.822.048-1.161c.435,0,5.95.242,5.95.242l1.838.145-.145-1.161.1-1.113h-.29l-5.224.145L123.7,147.5Z" transform="translate(-104.785 -147.065)"/>
      <path id="Path_16" data-name="Path 16" class="cls-1" d="M175.3,147.4l-1.355.145-1.161-.145a122.235,122.235,0,0,1-9.094,9.288l-.145.145v-1.548l.242-7.885-1.693.194L160.4,147.4v.339l.242,7.546v5.079L160.4,168.2l.29.048,1.4-.145,1.693.193v-.29l-.242-7.595v-2.419a.15.15,0,0,1,.048.1c1.354,1.354,6.385,7.546,8.466,10.11a10.852,10.852,0,0,0,1.838-.048l2.37.193-.387-.484s-9.288-10.642-9.578-10.933c2.274-2.564,6.821-6.869,9.24-9l.58-.532Z" transform="translate(-123.732 -147.013)"/>
      <path id="Path_17" data-name="Path 17" class="cls-1" d="M218.248,147.4l-1.354.145-1.161-.145c-2.661,2.854-6.192,6.772-9.095,9.288a.664.664,0,0,1-.193.145v-1.548l.242-7.885-1.693.194L203.3,147.4v.339l.242,7.546v5.079L203.3,168.2l.29.048,1.4-.145,1.693.193v-.29l-.242-7.595v-2.419l.1.1c1.355,1.354,6.385,7.546,8.466,10.11a10.851,10.851,0,0,0,1.838-.048l2.37.193-.387-.484s-9.288-10.642-9.578-10.933c2.274-2.564,6.821-6.869,9.24-9l.58-.532Z" transform="translate(-145.879 -147.013)"/>
      <path id="Path_18" data-name="Path 18" class="cls-1" d="M246.3,147.539l.242,7.595v5.079L246.3,168.1l1.693-.145,1.693.194v-.387l-.242-7.546v-5.079l.242-7.837-.29-.048-1.4.145L246.3,147.2Z" transform="translate(-168.078 -146.91)"/>
      <path id="Path_19" data-name="Path 19" class="cls-1" d="M267.084,152.4c0,3.822,2.757,4.983,5.224,6,2.177.871,4.063,1.645,4.063,4.015a3.822,3.822,0,0,1-3.967,4.015,4.725,4.725,0,0,1-4.4-2.951l-.048-.145h-.726l-.629,2.951.1.145a7.611,7.611,0,0,0,5.031,1.742c4.4,0,7.45-2.806,7.45-6.869,0-3.58-2.709-4.644-5.079-5.563-2.225-.919-4.209-1.693-4.209-4.16a3.317,3.317,0,0,1,3.531-3.386c1.548,0,2.612.871,3.289,2.612l.048.145h.726l.871-2.757-.1-.145a6.71,6.71,0,0,0-4.5-1.451C269.744,146.6,267.084,148.922,267.084,152.4Z" transform="translate(-178.558 -146.6)"/>
      <path id="Path_20" data-name="Path 20" class="cls-1" d="M305.848,147.694l.242,7.595v5.079l-.242,7.788.29.145,5.321-.145,5.563.145-.1-1.113.1-1.209-.338.048a48.65,48.65,0,0,1-7.643.387c0-.435-.048-4.16-.048-4.16s0-3.58.048-4.015c.484,0,7.16.242,7.16.242v-.29l-.1-.822.1-1.161h-.29s-6.385.29-6.869.29c0-.339-.048-3.628-.048-3.628l.048-2.322s.048-.822.048-1.161c.435,0,5.95.242,5.95.242l1.838.145-.145-1.161.1-1.113h-.29l-5.225.145L305.8,147.5Z" transform="translate(-198.795 -147.065)"/>
      <path id="Path_21" data-name="Path 21" class="cls-1" d="M342.4,147.539l.242,7.595v5.079L342.4,168.1l1.693-.145,1.693.194v-.387l-.242-7.546v-5.079l.242-7.837-.29-.048-1.4.145L342.4,147.2Z" transform="translate(-217.69 -146.91)"/>
    </g>
  </g>
</svg>
