<svg xmlns="http://www.w3.org/2000/svg" viewBox="0 0 59.852 59.851">
  <defs>
    <style>
      .cls-1 {
        fill: none;
        stroke: #fff;
      }

      .cls-2 {
        fill: #f9f9f9;
      }
    </style>
  </defs>
  <g id="Group_518" data-name="Group 518" transform="translate(6966.352 3166.293)">
    <circle id="Ellipse_8" data-name="Ellipse 8" class="cls-1" cx="29.426" cy="29.426" r="29.426" transform="translate(-6965.852 -3165.793)"/>
    <path id="Path_44" data-name="Path 44" class="cls-2" d="M841.91,2287.6a2.772,2.772,0,0,0-2.284,1.186l-6.149-3.689v-.482l6.193-3.689a2.852,2.852,0,0,0,2.24,1.1,2.811,2.811,0,1,0-2.811-2.81v.263l-6.193,3.645a2.831,2.831,0,0,0-2.2-1.1,2.811,2.811,0,1,0,0,5.621,2.706,2.706,0,0,0,2.24-1.142l6.149,3.645c0,.088-.044.176-.044.308a2.811,2.811,0,0,0,5.622,0A2.749,2.749,0,0,0,841.91,2287.6Zm0-9.794a1.406,1.406,0,1,1-1.405,1.406A1.415,1.415,0,0,1,841.91,2277.8Zm-11.155,8.389a1.406,1.406,0,1,1,1.405-1.405A1.415,1.415,0,0,1,830.755,2286.194Zm11.155,5.578a1.415,1.415,0,0,1-1.405-1.405,1.388,1.388,0,0,1,1.405-1.406,1.415,1.415,0,0,1,1.405,1.406A1.387,1.387,0,0,1,841.91,2291.771Z" transform="translate(-7774.12 -5421.199)"/>
  </g>
</svg>
