<svg xmlns="http://www.w3.org/2000/svg" viewBox="0 0 14.653 30.423">
  <defs>
    <style>
      .cls-1 {
        fill: #fff;
      }
    </style>
  </defs>
  <g id="noun_Augmented_Reality_1048811_000000" data-name="noun_Augmented Reality_1048811_000000" transform="translate(50.153 -20) rotate(90)">
    <g id="Group_240" data-name="Group 240" transform="translate(20 35.5)">
      <g id="Group_239" data-name="Group 239">
        <path id="Path_208" data-name="Path 208" class="cls-1" d="M50.423,37.528A2.034,2.034,0,0,0,48.395,35.5l-26.366.051A2.034,2.034,0,0,0,20,37.579V48.125a2.034,2.034,0,0,0,2.028,2.028L48.395,50.1a2.034,2.034,0,0,0,2.028-2.028ZM21.47,41.787a.152.152,0,1,1,.3,0v2.18a.152.152,0,1,1-.3,0Zm.152,3.448a.254.254,0,1,1,.254-.254A.24.24,0,0,1,21.623,45.235Zm25.5,3.347a.909.909,0,0,1-.913.913H24.208a.909.909,0,0,1-.913-.913V37.123a.909.909,0,0,1,.913-.913H46.214a.909.909,0,0,1,.913.913Z" transform="translate(-20 -35.5)"/>
      </g>
    </g>
    <g id="Group_242" data-name="Group 242" transform="translate(23.701 36.616)">
      <g id="Group_241" data-name="Group 241">
        <path id="Path_209" data-name="Path 209" class="cls-1" d="M49.813,37.7H27.807a.508.508,0,0,0-.507.507V49.666a.508.508,0,0,0,.507.507H49.813a.508.508,0,0,0,.507-.507V38.207A.479.479,0,0,0,49.813,37.7ZM31.154,49.159H28.618a.24.24,0,0,1-.254-.254V46.37a.254.254,0,0,1,.507,0v2.282h2.282a.24.24,0,0,1,.254.254A.272.272,0,0,1,31.154,49.159Zm0-9.887H28.872v2.282a.254.254,0,0,1-.507,0V39.018a.24.24,0,0,1,.254-.254h2.535a.254.254,0,1,1,0,.507ZM41.6,44.545h-2.13v2.13a.617.617,0,0,1-.608.608.654.654,0,0,1-.608-.608v-2.13h-2.13a.608.608,0,0,1,0-1.217h2.13V41.2a.617.617,0,0,1,.608-.608.654.654,0,0,1,.608.608v2.13H41.6a.608.608,0,0,1,0,1.217Zm7.707,4.31a.24.24,0,0,1-.254.254H46.517a.254.254,0,0,1,0-.507H48.8V46.32a.254.254,0,1,1,.507,0Zm0-7.3a.254.254,0,0,1-.507,0V39.272H46.517a.254.254,0,0,1,0-.507h2.535a.24.24,0,0,1,.254.254Z" transform="translate(-27.3 -37.7)"/>
      </g>
    </g>
  </g>
</svg>
