<svg xmlns="http://www.w3.org/2000/svg" viewBox="0 0 27.505 25.202">
  <defs>
    <style>
      .cls-1 {
        fill: #fff;
      }
    </style>
  </defs>
  <g id="Group_243" data-name="Group 243" transform="translate(-72.495 -821.824)">
    <path id="Path_138" data-name="Path 138" class="cls-1" d="M27.476,13.752,14.131,4.411a.41.41,0,0,0-.47,0L.32,13.752a.41.41,0,0,0-.1.57l1.817,2.595a.41.41,0,0,0,.57.1L13.9,9.111l11.29,7.907a.409.409,0,0,0,.57-.1l1.817-2.595a.41.41,0,0,0-.1-.57Z" transform="translate(72.35 817.487)"/>
    <path id="Path_139" data-name="Path 139" class="cls-1" d="M32.758,34.964,22.731,27.942a.41.41,0,0,0-.47,0L12.181,35a.409.409,0,0,0-.175.336V46.189a.41.41,0,0,0,.41.409H19.43a.41.41,0,0,0,.41-.409V36.732h5.314v9.457a.41.41,0,0,0,.41.409h6.961a.409.409,0,0,0,.409-.409V35.3A.409.409,0,0,0,32.758,34.964Z" transform="translate(63.752 800.428)"/>
  </g>
</svg>
